<svg width="35" height="35" viewBox="0 0 35 35" fill="none" xmlns="http://www.w3.org/2000/svg">
<g clip-path="url(#clip0_1_611)">
<path d="M17.5 2.91667C14.7926 2.91667 12.1961 3.99219 10.2816 5.90662C8.36721 7.82106 7.2917 10.4176 7.2917 13.125V18.27C7.29191 18.4962 7.23948 18.7194 7.13857 18.9219L4.63461 23.9283C4.5123 24.1729 4.45454 24.4447 4.46683 24.7179C4.47912 24.9911 4.56104 25.2566 4.70483 25.4893C4.84861 25.7219 5.04947 25.9139 5.28834 26.047C5.5272 26.1802 5.79614 26.25 6.06961 26.25H28.9304C29.2039 26.25 29.4729 26.1802 29.7117 26.047C29.9506 25.9139 30.1515 25.7219 30.2952 25.4893C30.439 25.2566 30.5209 24.9911 30.5332 24.7179C30.5455 24.4447 30.4878 24.1729 30.3654 23.9283L27.8629 18.9219C27.7615 18.7195 27.7086 18.4963 27.7084 18.27V13.125C27.7084 10.4176 26.6328 7.82106 24.7184 5.90662C22.804 3.99219 20.2074 2.91667 17.5 2.91667ZM17.5 30.625C16.595 30.6253 15.7121 30.3449 14.973 29.8226C14.2338 29.3002 13.6748 28.5616 13.3729 27.7083H21.6271C21.3252 28.5616 20.7662 29.3002 20.0271 29.8226C19.288 30.3449 18.4051 30.6253 17.5 30.625Z" fill="white" fill-opacity="0.8"/>
</g>
<defs>
<clipPath id="clip0_1_611">
<rect width="35" height="35" fill="white"/>
</clipPath>
</defs>
</svg>
