<svg width="35" height="35" viewBox="0 0 35 35" fill="none" xmlns="http://www.w3.org/2000/svg">
<path d="M8.75 16.0417H14.5833" stroke="white" stroke-width="2" stroke-linecap="round" stroke-linejoin="round"/>
<path d="M11.6667 13.125V18.9583" stroke="white" stroke-width="2" stroke-linecap="round" stroke-linejoin="round"/>
<path d="M21.875 17.5H21.8896" stroke="white" stroke-width="2" stroke-linecap="round" stroke-linejoin="round"/>
<path d="M26.25 14.5833H26.2646" stroke="white" stroke-width="2" stroke-linecap="round" stroke-linejoin="round"/>
<path d="M25.2584 7.29167H9.74169C8.29834 7.29201 6.90638 7.82743 5.83486 8.79443C4.76335 9.76143 4.08838 11.0913 3.94044 12.5271C3.93169 12.6029 3.92585 12.6744 3.91565 12.7488C3.79752 13.7317 2.91669 21.0817 2.91669 23.3333C2.91669 24.4937 3.37762 25.6065 4.19809 26.4269C5.01857 27.2474 6.13136 27.7083 7.29169 27.7083C8.75002 27.7083 9.47919 26.9792 10.2084 26.25L12.2704 24.1879C12.8173 23.6409 13.559 23.3335 14.3325 23.3333H20.6675C21.441 23.3335 22.1827 23.6409 22.7296 24.1879L24.7917 26.25C25.5209 26.9792 26.25 27.7083 27.7084 27.7083C28.8687 27.7083 29.9815 27.2474 30.8019 26.4269C31.6224 25.6065 32.0834 24.4937 32.0834 23.3333C32.0834 21.0802 31.2025 13.7317 31.0844 12.7488C31.0742 12.6758 31.0684 12.6029 31.0596 12.5285C30.912 11.0925 30.2372 9.76228 29.1656 8.79497C28.0941 7.82767 26.7019 7.29205 25.2584 7.29167Z" stroke="white" stroke-width="2" stroke-linecap="round" stroke-linejoin="round"/>
</svg>
