<svg width="30" height="30" viewBox="0 0 30 30" fill="none" xmlns="http://www.w3.org/2000/svg">
<g clip-path="url(#clip0_1_631)">
<path d="M15 2.5C21.9037 2.5 27.5 8.09625 27.5 15C27.5 21.9037 21.9037 27.5 15 27.5C8.09625 27.5 2.5 21.9037 2.5 15C2.5 8.09625 8.09625 2.5 15 2.5ZM15 8.75C14.6938 8.75004 14.3983 8.86244 14.1695 9.06589C13.9407 9.26934 13.7946 9.54969 13.7587 9.85375L13.75 10V13.75H10C9.6814 13.7504 9.37496 13.8723 9.14329 14.0911C8.91162 14.3098 8.77221 14.6087 8.75354 14.9267C8.73486 15.2448 8.83834 15.558 9.04283 15.8023C9.24732 16.0466 9.53738 16.2036 9.85375 16.2413L10 16.25H13.75V20C13.7504 20.3186 13.8723 20.625 14.0911 20.8567C14.3098 21.0884 14.6087 21.2278 14.9267 21.2465C15.2448 21.2651 15.558 21.1617 15.8023 20.9572C16.0466 20.7527 16.2036 20.4626 16.2413 20.1463L16.25 20V16.25H20C20.3186 16.2496 20.625 16.1277 20.8567 15.9089C21.0884 15.6902 21.2278 15.3913 21.2465 15.0733C21.2651 14.7552 21.1617 14.442 20.9572 14.1977C20.7527 13.9534 20.4626 13.7964 20.1463 13.7587L20 13.75H16.25V10C16.25 9.66848 16.1183 9.35054 15.8839 9.11612C15.6495 8.8817 15.3315 8.75 15 8.75Z" fill="#227CFF"/>
</g>
<defs>
<clipPath id="clip0_1_631">
<rect width="30" height="30" fill="white"/>
</clipPath>
</defs>
</svg>
