<svg width="35" height="35" viewBox="0 0 35 35" fill="none" xmlns="http://www.w3.org/2000/svg">
<path d="M2.91669 10.2083L9.34794 3.77709C9.61927 3.50414 9.94194 3.28758 10.2974 3.13991C10.6528 2.99224 11.0339 2.91637 11.4188 2.91667H23.5813C23.9661 2.91637 24.3473 2.99224 24.7027 3.13991C25.0581 3.28758 25.3808 3.50414 25.6521 3.77709L32.0834 10.2083" stroke="white" stroke-width="2" stroke-linecap="round" stroke-linejoin="round"/>
<path d="M5.83331 17.5V29.1667C5.83331 29.9402 6.1406 30.6821 6.68758 31.2291C7.23457 31.776 7.97643 32.0833 8.74998 32.0833H26.25C27.0235 32.0833 27.7654 31.776 28.3124 31.2291C28.8594 30.6821 29.1666 29.9402 29.1666 29.1667V17.5" stroke="white" stroke-width="2" stroke-linecap="round" stroke-linejoin="round"/>
<path d="M21.875 32.0833V26.25C21.875 25.4764 21.5677 24.7346 21.0207 24.1876C20.4737 23.6406 19.7319 23.3333 18.9583 23.3333H16.0417C15.2681 23.3333 14.5263 23.6406 13.9793 24.1876C13.4323 24.7346 13.125 25.4764 13.125 26.25V32.0833" stroke="white" stroke-width="2" stroke-linecap="round" stroke-linejoin="round"/>
<path d="M2.91669 10.2083H32.0834" stroke="white" stroke-width="2" stroke-linecap="round" stroke-linejoin="round"/>
<path d="M32.0834 10.2083V14.5833C32.0834 15.3569 31.7761 16.0987 31.2291 16.6457C30.6821 17.1927 29.9402 17.5 29.1667 17.5C28.3146 17.4531 27.5009 17.1307 26.8479 16.5812C26.6739 16.4555 26.4647 16.3878 26.25 16.3878C26.0353 16.3878 25.8261 16.4555 25.6521 16.5812C24.9992 17.1307 24.1854 17.4531 23.3334 17.5C22.4813 17.4531 21.6675 17.1307 21.0146 16.5812C20.8406 16.4555 20.6314 16.3878 20.4167 16.3878C20.202 16.3878 19.9928 16.4555 19.8188 16.5812C19.1658 17.1307 18.3521 17.4531 17.5 17.5C16.648 17.4531 15.8342 17.1307 15.1813 16.5812C15.0073 16.4555 14.798 16.3878 14.5834 16.3878C14.3687 16.3878 14.1594 16.4555 13.9854 16.5812C13.3325 17.1307 12.5187 17.4531 11.6667 17.5C10.8146 17.4531 10.0009 17.1307 9.34794 16.5812C9.17393 16.4555 8.96471 16.3878 8.75002 16.3878C8.53533 16.3878 8.32611 16.4555 8.1521 16.5812C7.49916 17.1307 6.68541 17.4531 5.83335 17.5C5.05981 17.5 4.31794 17.1927 3.77096 16.6457C3.22398 16.0987 2.91669 15.3569 2.91669 14.5833V10.2083" stroke="white" stroke-width="2" stroke-linecap="round" stroke-linejoin="round"/>
</svg>
